<svg xmlns="http://www.w3.org/2000/svg" viewBox="0 0 128 128" role="img" aria-labelledby="aiking-king-icon-title">
  <title id="aiking-king-icon-title">AIKING neon chess king</title>
  <defs>
    <linearGradient id="king-neon" x1="42" y1="20" x2="90" y2="112" gradientUnits="userSpaceOnUse">
      <stop offset="0" stop-color="#efff85"/>
      <stop offset="0.48" stop-color="#d1fe17"/>
      <stop offset="1" stop-color="#9fd20d"/>
    </linearGradient>
    <radialGradient id="tile" cx="0" cy="0" r="1" gradientTransform="translate(64 56) rotate(90) scale(76)" gradientUnits="userSpaceOnUse">
      <stop stop-color="#10150d"/>
      <stop offset="1" stop-color="#050605"/>
    </radialGradient>
    <filter id="neon-glow" x="-45%" y="-45%" width="190%" height="190%" color-interpolation-filters="sRGB">
      <feGaussianBlur stdDeviation="5"/>
    </filter>
  </defs>

  <rect width="128" height="128" rx="30" fill="url(#tile)"/>
  <rect x="3" y="3" width="122" height="122" rx="27" fill="none" stroke="#d1fe17" stroke-opacity="0.2" stroke-width="2"/>

  <g fill="#d1fe17" opacity="0.4" filter="url(#neon-glow)">
    <path d="M58 13h12v10h10v11H70v10H58V34H48V23h10V13Z"/>
    <path d="M42 57c0-11 9.8-19 22-19s22 8 22 19c0 7.3-4.2 13-11 17H53c-6.8-4-11-9.7-11-17Z"/>
    <rect x="46" y="70" width="36" height="10" rx="5"/>
    <path d="M52 77h24l10 27H42l10-27Z"/>
    <rect x="36" y="99" width="56" height="10" rx="5"/>
    <rect x="29" y="106" width="70" height="13" rx="6.5"/>
  </g>

  <g fill="url(#king-neon)">
    <path d="M58 13h12v10h10v11H70v10H58V34H48V23h10V13Z"/>
    <path d="M42 57c0-11 9.8-19 22-19s22 8 22 19c0 7.3-4.2 13-11 17H53c-6.8-4-11-9.7-11-17Z"/>
    <rect x="46" y="70" width="36" height="10" rx="5"/>
    <path d="M52 77h24l10 27H42l10-27Z"/>
    <rect x="36" y="99" width="56" height="10" rx="5"/>
    <rect x="29" y="106" width="70" height="13" rx="6.5"/>
  </g>

  <path d="M52 112h24" fill="none" stroke="#f4ffc2" stroke-opacity="0.65" stroke-width="2" stroke-linecap="round"/>
</svg>
